<?xml version="1.0" encoding="UTF-8" standalone="no"?>
<svg xmlns="http://www.w3.org/2000/svg" xmlns:xlink="http://www.w3.org/1999/xlink" contentScriptType="text/ecmascript" width="1910" zoomAndPan="magnify" contentStyleType="text/css" viewBox="0 0 1920 540" height="530" preserveAspectRatio="xMidYMid meet" overflow="visible" version="1.0">
<defs>
<marker refX="10" refY="5" markerUnits="strokeWidth" orient="auto" markerHeight="10" id="lacij-end-arrow-marker" viewBox="0 0 10 10" preserveAspectRatio="xMidYMid meet" markerWidth="14">
<polyline points="0,0 10,5 0,10 1,5"/>
</marker>
</defs>
<g id="graph0">
<g>
<line y2="155.0" marker-end="url(#lacij-end-arrow-marker)" style=" stroke: #000000;  stroke-width: 1; " x1="305.0" x2="105.0" y1="105.0"/>
</g>
<g>
<line y2="355.0" marker-end="url(#lacij-end-arrow-marker)" style=" stroke: #000000;  stroke-width: 1; " x1="305.0" x2="105.0" y1="385.0"/>
</g>
<g>
<line y2="225.0" marker-end="url(#lacij-end-arrow-marker)" style=" stroke: #000000;  stroke-width: 1; " x1="905.0" x2="705.0" y1="275.0"/>
</g>
<g>
<line y2="305.0" marker-end="url(#lacij-end-arrow-marker)" style=" stroke: #000000;  stroke-width: 1; " x1="605.0" x2="405.0" y1="225.0"/>
</g>
<g>
<line y2="195.0" marker-end="url(#lacij-end-arrow-marker)" style=" stroke: #000000;  stroke-width: 1; " x1="305.0" x2="105.0" y1="305.0"/>
</g>
<g>
<line y2="45.0" marker-end="url(#lacij-end-arrow-marker)" style=" stroke: #000000;  stroke-width: 1; " x1="605.0" x2="405.0" y1="185.0"/>
</g>
<g>
<line y2="355.0" marker-end="url(#lacij-end-arrow-marker)" style=" stroke: #000000;  stroke-width: 1; " x1="305.0" x2="105.0" y1="325.0"/>
</g>
<g>
<line y2="175.0" marker-end="url(#lacij-end-arrow-marker)" style=" stroke: #000000;  stroke-width: 1; " x1="305.0" x2="105.0" y1="145.0"/>
</g>
<g>
<line y2="235.0" marker-end="url(#lacij-end-arrow-marker)" style=" stroke: #000000;  stroke-width: 1; " x1="1205.0" x2="1005.0" y1="190.0"/>
</g>
<g>
<line y2="375.0" marker-end="url(#lacij-end-arrow-marker)" style=" stroke: #000000;  stroke-width: 1; " x1="305.0" x2="105.0" y1="425.0"/>
</g>
<g>
<line y2="305.0" marker-end="url(#lacij-end-arrow-marker)" style=" stroke: #000000;  stroke-width: 1; " x1="605.0" x2="405.0" y1="165.0"/>
</g>
<g>
<line y2="385.0" marker-end="url(#lacij-end-arrow-marker)" style=" stroke: #000000;  stroke-width: 1; " x1="605.0" x2="405.0" y1="385.0"/>
</g>
<g>
<line y2="425.0" marker-end="url(#lacij-end-arrow-marker)" style=" stroke: #000000;  stroke-width: 1; " x1="605.0" x2="405.0" y1="385.0"/>
</g>
<g>
<line y2="45.0" marker-end="url(#lacij-end-arrow-marker)" style=" stroke: #000000;  stroke-width: 1; " x1="605.0" x2="405.0" y1="125.0"/>
</g>
<g>
<line y2="175.0" marker-end="url(#lacij-end-arrow-marker)" style=" stroke: #000000;  stroke-width: 1; " x1="305.0" x2="105.0" y1="205.0"/>
</g>
<g>
<line y2="145.0" marker-end="url(#lacij-end-arrow-marker)" style=" stroke: #000000;  stroke-width: 1; " x1="605.0" x2="405.0" y1="145.0"/>
</g>
<g>
<line y2="155.0" marker-end="url(#lacij-end-arrow-marker)" style=" stroke: #000000;  stroke-width: 1; " x1="305.0" x2="105.0" y1="45.0"/>
</g>
<g>
<line y2="385.0" marker-end="url(#lacij-end-arrow-marker)" style=" stroke: #000000;  stroke-width: 1; " x1="905.0" x2="705.0" y1="355.0"/>
</g>
<g>
<line y2="445.0" marker-end="url(#lacij-end-arrow-marker)" style=" stroke: #000000;  stroke-width: 1; " x1="605.0" x2="405.0" y1="445.0"/>
</g>
<g>
<line y2="195.0" marker-end="url(#lacij-end-arrow-marker)" style=" stroke: #000000;  stroke-width: 1; " x1="305.0" x2="105.0" y1="245.0"/>
</g>
<g>
<line y2="425.0" marker-end="url(#lacij-end-arrow-marker)" style=" stroke: #000000;  stroke-width: 1; " x1="905.0" x2="705.0" y1="375.0"/>
</g>
<g>
<line y2="335.0" marker-end="url(#lacij-end-arrow-marker)" style=" stroke: #000000;  stroke-width: 1; " x1="305.0" x2="105.0" y1="285.0"/>
</g>
<g>
<g>
<path style=" stroke: #000000;  stroke-width: 1; " d=" M905.0,235.0 L655.0,265.0 M655.0,265.0 Z"/>
<line y2="325.0" marker-end="url(#lacij-end-arrow-marker)" style=" stroke: #000000;  stroke-width: 1; " x1="655.0" x2="405.0" y1="265.0"/>
</g>
<text x="655.0" y="280.0" style=" dominant-baseline: central; " text-anchor="middle"/>
</g>
<g>
<g>
<path style=" stroke: #000000;  stroke-width: 1; " d=" M1805.0,130.0 L1555.0,130.0 M1555.0,130.0 L1255.0,130.0 M1255.0,130.0 Z"/>
<line y2="295.0" marker-end="url(#lacij-end-arrow-marker)" style=" stroke: #000000;  stroke-width: 1; " x1="1255.0" x2="1005.0" y1="130.0"/>
</g>
<text x="1405.0" y="212.5" style=" dominant-baseline: central; " text-anchor="middle"/>
</g>
<g>
<line y2="335.0" marker-end="url(#lacij-end-arrow-marker)" style=" stroke: #000000;  stroke-width: 1; " x1="305.0" x2="105.0" y1="225.0"/>
</g>
<g>
<g>
<path style=" stroke: #000000;  stroke-width: 1; " d=" M1505.0,70.0 L1255.0,70.0 M1255.0,70.0 L955.0,175.0 M955.0,175.0 Z"/>
<line y2="205.0" marker-end="url(#lacij-end-arrow-marker)" style=" stroke: #000000;  stroke-width: 1; " x1="955.0" x2="705.0" y1="175.0"/>
</g>
<text x="1105.0" y="137.5" style=" dominant-baseline: central; " text-anchor="middle"/>
</g>
<g>
<line y2="170.0" marker-end="url(#lacij-end-arrow-marker)" style=" stroke: #000000;  stroke-width: 1; " x1="1505.0" x2="1305.0" y1="90.0"/>
</g>
<g>
<g>
<path style=" stroke: #000000;  stroke-width: 1; " d=" M905.0,315.0 L655.0,505.0 M655.0,505.0 Z"/>
<line y2="485.0" marker-end="url(#lacij-end-arrow-marker)" style=" stroke: #000000;  stroke-width: 1; " x1="655.0" x2="405.0" y1="505.0"/>
</g>
<text x="655.0" y="400.0" style=" dominant-baseline: central; " text-anchor="middle"/>
</g>
<g>
<line y2="265.0" marker-end="url(#lacij-end-arrow-marker)" style=" stroke: #000000;  stroke-width: 1; " x1="605.0" x2="405.0" y1="305.0"/>
</g>
<g>
<line y2="70.0" marker-end="url(#lacij-end-arrow-marker)" style=" stroke: #000000;  stroke-width: 1; " x1="1805.0" x2="1605.0" y1="110.0"/>
</g>
<g>
<line y2="305.0" marker-end="url(#lacij-end-arrow-marker)" style=" stroke: #000000;  stroke-width: 1; " x1="905.0" x2="705.0" y1="255.0"/>
</g>
<g>
<line y2="335.0" marker-end="url(#lacij-end-arrow-marker)" style=" stroke: #000000;  stroke-width: 1; " x1="1205.0" x2="1005.0" y1="210.0"/>
</g>
<g>
<line y2="485.0" marker-end="url(#lacij-end-arrow-marker)" style=" stroke: #000000;  stroke-width: 1; " x1="605.0" x2="405.0" y1="345.0"/>
</g>
<g>
<line y2="375.0" marker-end="url(#lacij-end-arrow-marker)" style=" stroke: #000000;  stroke-width: 1; " x1="305.0" x2="105.0" y1="485.0"/>
</g>
<g id="g2">
<rect width="100" x="5.0" height="40" y="155.0" style=" fill: white;  stroke: black; "/>
<text x="55.0" y="175.0" style=" dominant-baseline: central; " text-anchor="middle">g2</text>
</g>
<g id="g1">
<rect width="100" x="5.0" height="40" y="335.0" style=" fill: white;  stroke: black; "/>
<text x="55.0" y="355.0" style=" dominant-baseline: central; " text-anchor="middle">g1</text>
</g>
<g id="f7">
<rect width="100" x="305.0" height="40" y="5.0" style=" fill: white;  stroke: black; "/>
<text x="355.0" y="25.0" style=" dominant-baseline: central; " text-anchor="middle">f7</text>
</g>
<g id="f6">
<rect width="100" x="305.0" height="40" y="185.0" style=" fill: white;  stroke: black; "/>
<text x="355.0" y="205.0" style=" dominant-baseline: central; " text-anchor="middle">f6</text>
</g>
<g id="f9">
<rect width="100" x="305.0" height="40" y="65.0" style=" fill: white;  stroke: black; "/>
<text x="355.0" y="85.0" style=" dominant-baseline: central; " text-anchor="middle">f9</text>
</g>
<g id="f8">
<rect width="100" x="305.0" height="40" y="125.0" style=" fill: white;  stroke: black; "/>
<text x="355.0" y="145.0" style=" dominant-baseline: central; " text-anchor="middle">f8</text>
</g>
<g id="a">
<rect width="100" x="1805.0" height="40" y="110.0" style=" fill: white;  stroke: black; "/>
<text x="1855.0" y="130.0" style=" dominant-baseline: central; " text-anchor="middle">a</text>
</g>
<g id="f1">
<rect width="100" x="305.0" height="40" y="365.0" style=" fill: white;  stroke: black; "/>
<text x="355.0" y="385.0" style=" dominant-baseline: central; " text-anchor="middle">f1</text>
</g>
<g id="f2">
<rect width="100" x="305.0" height="40" y="425.0" style=" fill: white;  stroke: black; "/>
<text x="355.0" y="445.0" style=" dominant-baseline: central; " text-anchor="middle">f2</text>
</g>
<g id="f3">
<rect width="100" x="305.0" height="40" y="245.0" style=" fill: white;  stroke: black; "/>
<text x="355.0" y="265.0" style=" dominant-baseline: central; " text-anchor="middle">f3</text>
</g>
<g id="c">
<rect width="100" x="1205.0" height="40" y="170.0" style=" fill: white;  stroke: black; "/>
<text x="1255.0" y="190.0" style=" dominant-baseline: central; " text-anchor="middle">c</text>
</g>
<g id="f4">
<rect width="100" x="305.0" height="40" y="485.0" style=" fill: white;  stroke: black; "/>
<text x="355.0" y="505.0" style=" dominant-baseline: central; " text-anchor="middle">f4</text>
</g>
<g id="f5">
<rect width="100" x="305.0" height="40" y="305.0" style=" fill: white;  stroke: black; "/>
<text x="355.0" y="325.0" style=" dominant-baseline: central; " text-anchor="middle">f5</text>
</g>
<g id="b">
<rect width="100" x="1505.0" height="40" y="50.0" style=" fill: white;  stroke: black; "/>
<text x="1555.0" y="70.0" style=" dominant-baseline: central; " text-anchor="middle">b</text>
</g>
<g id="e1">
<rect width="100" x="605.0" height="40" y="365.0" style=" fill: white;  stroke: black; "/>
<text x="655.0" y="385.0" style=" dominant-baseline: central; " text-anchor="middle">e1</text>
</g>
<g id="e2">
<rect width="100" x="605.0" height="40" y="425.0" style=" fill: white;  stroke: black; "/>
<text x="655.0" y="445.0" style=" dominant-baseline: central; " text-anchor="middle">e2</text>
</g>
<g id="e3">
<rect width="100" x="605.0" height="40" y="305.0" style=" fill: white;  stroke: black; "/>
<text x="655.0" y="325.0" style=" dominant-baseline: central; " text-anchor="middle">e3</text>
</g>
<g id="e4">
<rect width="100" x="605.0" height="40" y="185.0" style=" fill: white;  stroke: black; "/>
<text x="655.0" y="205.0" style=" dominant-baseline: central; " text-anchor="middle">e4</text>
</g>
<g id="d1">
<rect width="100" x="905.0" height="40" y="335.0" style=" fill: white;  stroke: black; "/>
<text x="955.0" y="355.0" style=" dominant-baseline: central; " text-anchor="middle">d1</text>
</g>
<g id="d2">
<rect width="100" x="905.0" height="40" y="215.0" style=" fill: white;  stroke: black; "/>
<text x="955.0" y="235.0" style=" dominant-baseline: central; " text-anchor="middle">d2</text>
</g>
<g id="d3">
<rect width="100" x="905.0" height="40" y="275.0" style=" fill: white;  stroke: black; "/>
<text x="955.0" y="295.0" style=" dominant-baseline: central; " text-anchor="middle">d3</text>
</g>
<g id="e5">
<rect width="100" x="605.0" height="40" y="125.0" style=" fill: white;  stroke: black; "/>
<text x="655.0" y="145.0" style=" dominant-baseline: central; " text-anchor="middle">e5</text>
</g>
</g>
</svg>
