<?xml version="1.0" encoding="UTF-8" standalone="no"?>
<svg xmlns="http://www.w3.org/2000/svg" xmlns:xlink="http://www.w3.org/1999/xlink" contentScriptType="text/ecmascript" width="800" zoomAndPan="magnify" contentStyleType="text/css" height="800" preserveAspectRatio="xMidYMid meet" overflow="visible" version="1.0">
<defs>
<marker refX="8" refY="5" markerUnits="strokeWidth" orient="auto" markerHeight="10" id="lacij-end-arrow-marker" viewBox="0 0 10 10" preserveAspectRatio="xMidYMid meet" markerWidth="14">
<polyline points="0,0 10,5 0,10 1,5"/>
</marker>
</defs>
<g id="G__2493">
<rect width="100" x="407" height="40" y="161" style=" fill: white;  stroke: black; "/>
<text x="457" y="181" style=" dominant-baseline: central; " text-anchor="middle">:G__2493</text>
</g>
<g id="G__2496">
<rect width="100" x="173" height="40" y="298" style=" fill: white;  stroke: black; "/>
<text x="223" y="318" style=" dominant-baseline: central; " text-anchor="middle">:G__2496</text>
</g>
<g id="G__2497">
<rect width="100" x="497" height="40" y="3" style=" fill: white;  stroke: black; "/>
<text x="547" y="23" style=" dominant-baseline: central; " text-anchor="middle">:G__2497</text>
</g>
<g id="G__2494">
<rect width="100" x="612" height="40" y="570" style=" fill: white;  stroke: black; "/>
<text x="662" y="590" style=" dominant-baseline: central; " text-anchor="middle">:G__2494</text>
</g>
<g id="G__2495">
<rect width="100" x="152" height="40" y="31" style=" fill: white;  stroke: black; "/>
<text x="202" y="51" style=" dominant-baseline: central; " text-anchor="middle">:G__2495</text>
</g>
<g id="G__2502">
<rect width="100" x="306" height="40" y="505" style=" fill: white;  stroke: black; "/>
<text x="356" y="525" style=" dominant-baseline: central; " text-anchor="middle">:G__2502</text>
</g>
<g id="G__2501">
<rect width="100" x="583" height="40" y="264" style=" fill: white;  stroke: black; "/>
<text x="633" y="284" style=" dominant-baseline: central; " text-anchor="middle">:G__2501</text>
</g>
<g id="G__2500">
<rect width="100" x="265" height="40" y="698" style=" fill: white;  stroke: black; "/>
<text x="315" y="718" style=" dominant-baseline: central; " text-anchor="middle">:G__2500</text>
</g>
<g id="G__2503">
<rect width="100" x="405" height="40" y="730" style=" fill: white;  stroke: black; "/>
<text x="455" y="750" style=" dominant-baseline: central; " text-anchor="middle">:G__2503</text>
</g>
<g id="G__2504">
<rect width="100" x="442" height="40" y="551" style=" fill: white;  stroke: black; "/>
<text x="492" y="571" style=" dominant-baseline: central; " text-anchor="middle">:G__2504</text>
</g>
<g id="G__2499">
<rect width="100" x="25" height="40" y="583" style=" fill: white;  stroke: black; "/>
<text x="75" y="603" style=" dominant-baseline: central; " text-anchor="middle">:G__2499</text>
</g>
<g id="G__2498">
<rect width="100" x="47" height="40" y="343" style=" fill: white;  stroke: black; "/>
<text x="97" y="363" style=" dominant-baseline: central; " text-anchor="middle">:G__2498</text>
</g>
<g>
<line y2="571" marker-end="url(#lacij-end-arrow-marker)" style=" stroke: #000000;  stroke-width: 1; " x1="125" x2="442" y1="603"/>
</g>
<g>
<line y2="201" marker-end="url(#lacij-end-arrow-marker)" style=" stroke: #000000;  stroke-width: 1; " x1="356" x2="457" y1="505"/>
</g>
<g>
<line y2="383" marker-end="url(#lacij-end-arrow-marker)" style=" stroke: #000000;  stroke-width: 1; " x1="75" x2="97" y1="583"/>
</g>
<g>
<line y2="43" marker-end="url(#lacij-end-arrow-marker)" style=" stroke: #000000;  stroke-width: 1; " x1="633" x2="547" y1="264"/>
</g>
<g>
<line y2="304" marker-end="url(#lacij-end-arrow-marker)" style=" stroke: #000000;  stroke-width: 1; " x1="492" x2="633" y1="551"/>
</g>
<g>
<line y2="591" marker-end="url(#lacij-end-arrow-marker)" style=" stroke: #000000;  stroke-width: 1; " x1="365" x2="442" y1="698"/>
</g>
<g>
<line y2="304" marker-end="url(#lacij-end-arrow-marker)" style=" stroke: #000000;  stroke-width: 1; " x1="406" x2="583" y1="505"/>
</g>
<g>
<line y2="730" marker-end="url(#lacij-end-arrow-marker)" style=" stroke: #000000;  stroke-width: 1; " x1="365" x2="405" y1="718"/>
</g>
<g>
<line y2="545" marker-end="url(#lacij-end-arrow-marker)" style=" stroke: #000000;  stroke-width: 1; " x1="125" x2="306" y1="583"/>
</g>
<g>
<line y2="590" marker-end="url(#lacij-end-arrow-marker)" style=" stroke: #000000;  stroke-width: 1; " x1="542" x2="612" y1="571"/>
</g>
<g>
<line y2="298" marker-end="url(#lacij-end-arrow-marker)" style=" stroke: #000000;  stroke-width: 1; " x1="202" x2="223" y1="71"/>
</g>
<g>
<line y2="201" marker-end="url(#lacij-end-arrow-marker)" style=" stroke: #000000;  stroke-width: 1; " x1="583" x2="507" y1="264"/>
</g>
</svg>
