<?xml version="1.0" encoding="UTF-8" standalone="no"?><svg xmlns="http://www.w3.org/2000/svg" xmlns:xlink="http://www.w3.org/1999/xlink" contentScriptType="text/ecmascript" width="800" zoomAndPan="magnify" contentStyleType="text/css" height="400" preserveAspectRatio="xMidYMid meet" overflow="visible" version="1.0"><defs><marker refX="8" refY="5" markerUnits="strokeWidth" orient="auto" markerHeight="10" id="lacij-end-arrow-marker" viewBox="0 0 10 10" preserveAspectRatio="xMidYMid meet" markerWidth="14"><polyline points="0,0 10,5 0,10 1,5"/></marker></defs><g id="perseus"><rect x="600" y="150" width="100" style=" fill: lightgreen;  stroke: black; " rx="5" ry="5" height="40"/><text x="650" y="170" style=" dominant-baseline: central; " text-anchor="middle">Perseus</text></g><g id="epaphus"><rect x="450" y="250" width="100" style=" fill: lightgreen;  stroke: black; " rx="5" ry="5" height="40"/><text x="500" y="270" style=" dominant-baseline: central; " text-anchor="middle">Epaphus</text></g><g id="ares"><rect width="100" x="300" height="40" y="250" style=" fill: lavender;  stroke: red; "/><text x="350" y="270" style=" dominant-baseline: central; " text-anchor="middle">Ares</text></g><g id="zeus"><rect x="300" y="150" width="100" style=" fill: lightgreen;  stroke: black; " rx="15" ry="15" height="40"/><text x="350" y="170" style=" dominant-baseline: central; " text-anchor="middle">Zeus</text></g><g id="hermes"><rect width="100" x="10" height="40" y="30" style=" fill: lightblue;  stroke: black; "/><text x="60" y="50" style=" dominant-baseline: central; " text-anchor="middle">Hermes</text></g><g><line y2="170" marker-end="url(#lacij-end-arrow-marker)" style=" stroke: royalblue;  stroke-width: 1; " x1="600" x2="400" y1="170"/></g><g><line y2="190" marker-end="url(#lacij-end-arrow-marker)" style=" stroke: royalblue;  stroke-width: 1; " x1="450" x2="400" y1="250"/></g><g><line y2="190" marker-end="url(#lacij-end-arrow-marker)" style=" stroke: royalblue;  stroke-width: 1; " x1="350" x2="350" y1="250"/><text x="350.0" y="220.0" style=" font-style: italic;  font-size: 20px;  stroke: crimson;  dominant-baseline: central; " text-anchor="middle">son of</text></g><g><line y2="150" marker-end="url(#lacij-end-arrow-marker)" style=" stroke-dasharray: 9, 5;  stroke: darkcyan;  stroke-width: 1; " x1="110" x2="300" y1="70"/><text x="205.0" y="110.0" style=" dominant-baseline: central; " text-anchor="middle">son of</text></g></svg>